:version 1.10
:name ASF
:units
  mass 1
  length 1
  angle deg
:documentation
  ASF file generated by Kaydara
:root
  axis xyz
  order  tx ty tz rx ry rz
  position 0 0 0
  orientation 0 0 0
:bonedata
  begin
    id 1
    name RightUpLegDummy
    direction -1 2.30186e-007 8.31532e-007
    length 4.46685
    axis 0 0 0 xyz
  end
  begin
    id 2
    name RightUpLeg
    direction -2.30187e-007 -1 1.24343e-010
    length 16.4045
    axis -3.49089 -0.000906625 0.000286804 xyz
    dof rx ry rz
  end
  begin
    id 3
    name RightLeg
    direction -2.30181e-007 -1 -4.17157e-009
    length 17.5097
    axis 3.68512 0.0193738 -0.131023 xyz
    dof rx ry rz
  end
  begin
    id 4
    name RightFoot
    direction 8.31421e-007 -4.51202e-011 1
    length 6.49508
    axis 4.81691e-005 -0.120479 -0.188788 xyz
    dof rx ry rz
  end
  begin
    id 5
    name RightToes
    direction 0.00124746 -0.014064 0.9999
    length 3.85082
    axis 0.000481921 0.542163 -0.142578 xyz
    dof rx ry rz
  end
  begin
    id 6
    name SpineDummy
    direction 0.0717043 0.9409 -0.331007
    length 10.0032
    axis 0 0 0 xyz
  end
  begin
    id 7
    name Spine
    direction 2.30186e-007 1 4.58806e-011
    length 9.84055
    axis -0.001389 0.000121418 2.40972e-006 xyz
    dof rx ry rz
  end
  begin
    id 8
    name Spine1
    direction 0 0 0
    length 0
    axis -0.001389 0.000121451 1.30017e-006 xyz
    dof rx ry rz
  end
  begin
    id 9
    name HEadDummy
    direction -0.00347485 0.950688 -0.310128
    length 8.00997
    axis -0.001389 0.000121451 1.30017e-006 xyz
  end
  begin
    id 10
    name HEad
    direction -0.0222688 0.980941 0.193023
    length 5.12695
    axis -0.001389 0.000121451 1.30017e-006 xyz
    dof rx ry rz
  end
  begin
    id 11
    name LeftShoulder1Dummy
    direction 0.988871 0.146793 -0.0242004
    length 3.5792
    axis -0.001389 0.000121451 1.30017e-006 xyz
  end
  begin
    id 12
    name LeftShoulder1
    direction 0.993832 0.108932 0.020779
    length 4.16823
    axis -0.001389 0.000121451 1.30017e-006 xyz
    dof rx ry rz
  end
  begin
    id 13
    name LeftArm
    direction 1 3.44807e-006 -8.31404e-007
    length 9.91437
    axis -23.1894 0.134784 0.967509 xyz
    dof rx ry rz
  end
  begin
    id 14
    name LeftForeArm
    direction 1 3.44842e-006 -8.31581e-007
    length 9.08575
    axis -9.91835 -0.06569 -0.177793 xyz
    dof rx ry rz
  end
  begin
    id 15
    name LeftHand
    direction 0.992938 -0.0411636 0.11126
    length 5.32135
    axis -0.00960232 -0.00340091 0.185173 xyz
    dof rx ry rz
  end
  begin
    id 16
    name RightShoulderDummy
    direction -0.988871 0.146793 -0.0241962
    length 3.5792
    axis -0.001389 0.000121451 1.30017e-006 xyz
  end
  begin
    id 17
    name RightShoulder
    direction -0.993832 0.108933 0.0207785
    length 4.16823
    axis 0.215806 0.000203643 -0.0068026 xyz
    dof rx ry rz
  end
  begin
    id 18
    name RightArm
    direction -1 3.90912e-006 8.31284e-007
    length 9.91437
    axis -23.2009 -0.134239 -0.964101 xyz
    dof rx ry rz
  end
  begin
    id 19
    name RightForeArm
    direction -1 3.90882e-006 8.31502e-007
    length 9.08575
    axis -9.92322 0.0658061 0.178867 xyz
    dof rx ry rz
  end
  begin
    id 20
    name RightHand
    direction -0.992843 -0.0414603 0.112003
    length 5.28593
    axis -0.00960638 0.00330671 -0.185228 xyz
    dof rx ry rz
  end
  begin
    id 21
    name LeftUpLegDummy
    direction 1 -2.30186e-007 -8.31532e-007
    length 4.46685
    axis 0 0 0 xyz
  end
  begin
    id 22
    name LeftUpLeg
    direction -2.30187e-007 -1 6.00931e-010
    length 16.4045
    axis -3.48766 0.00143442 -0.000524262 xyz
    dof rx ry rz
  end
  begin
    id 23
    name LeftLeg
    direction -2.30187e-007 -1 1.6669e-009
    length 17.5097
    axis 3.68178 -0.00654042 -0.000285133 xyz
    dof rx ry rz
  end
  begin
    id 24
    name LeftFoot
    direction 8.31532e-007 -4.54478e-011 1
    length 6.49508
    axis 1.87233e-006 4.66016e-005 -8.6538e-006 xyz
    dof rx ry rz
  end
  begin
    id 25
    name LeftToes
    direction 0.00818058 -0.00485161 0.999955
    length 3.85048
    axis 1.06247e-005 4.65869e-005 -8.65513e-006 xyz
    dof rx ry rz
  end
:hierarchy
  begin
    root RightUpLegDummy SpineDummy LeftUpLegDummy
    RightUpLegDummy RightUpLeg
    RightUpLeg RightLeg
    RightLeg RightFoot
    RightFoot RightToes
    SpineDummy Spine
    Spine Spine1
    Spine1 HEadDummy LeftShoulder1Dummy RightShoulderDummy
    HEadDummy HEad
    LeftShoulder1Dummy LeftShoulder1
    LeftShoulder1 LeftArm
    LeftArm LeftForeArm
    LeftForeArm LeftHand
    RightShoulderDummy RightShoulder
    RightShoulder RightArm
    RightArm RightForeArm
    RightForeArm RightHand
    LeftUpLegDummy LeftUpLeg
    LeftUpLeg LeftLeg
    LeftLeg LeftFoot
    LeftFoot LeftToes
  end

:SAMPLES-PER-SECOND 30
:FULLY-SPECIFIED
:DEGREES
32
root  -66.2132 26.1496 -36.2251 14.9966 44.1451 2.68074
RightUpLeg  -32.3754 -15.1015 -16.3628
RightLeg  72.2996 -0.651557 -1.86249
RightFoot  -31.7632 0.75289 3.02345
RightToes  -48.679 -0.291256 -0.358721
Spine  19.1659 2.92253 -1.67067
Spine1  29.9816 10.9599 -4.50233
HEad  16.6606 -1.60137 7.27405
LeftShoulder1  0 -2.42657e-020 -4.95415e-022
LeftArm  -23.3709 -31.2765 -93.5612
LeftForeArm  28.994 -25.9697 -4.9184
LeftHand  0.220728 -6.91667 -4.0252
RightShoulder  0 2.42657e-020 1.07489e-018
RightArm  -54.2508 51.3719 76.3919
RightForeArm  69.2694 3.73483 0.599679
RightHand  1.25223 15.6155 9.48736
LeftUpLeg  -66.1474 -0.156796 11.0387
LeftLeg  69.9085 -7.08956 -15.6672
LeftFoot  -5.65717 0.0668116 1.35216
LeftToes  -42.0052 8.63562e-007 1.17448e-007
33
root  -65.9294 26.3291 -35.5409 15.8706 46.4338 2.48248
RightUpLeg  -31.4894 -13.1573 -14.1143
RightLeg  72.8365 -2.7506 -7.3833
RightFoot  -30.8135 1.51207 5.86082
RightToes  -43.9143 -0.250483 -0.336149
Spine  18.9162 1.55592 -2.92055
Spine1  29.298 7.86777 -5.85164
HEad  15.8238 -0.874526 11.0141
LeftShoulder1  0 -2.42657e-020 -4.95415e-022
LeftArm  -26.2323 -33.7146 -87.9737
LeftForeArm  29.6941 -24.4475 -4.5889
LeftHand  0.258062 -6.43104 -4.96628
RightShoulder  0 2.42657e-020 1.07489e-018
RightArm  -49.2258 47.6026 84.5232
RightForeArm  71.0891 6.21767 1.03333
RightHand  0.629841 19.8998 3.96049
LeftUpLeg  -66.3047 -1.01796 11.6362
LeftLeg  69.6819 -7.62847 -16.6173
LeftFoot  -6.1896 0.0834269 1.54292
LeftToes  -43.8914 8.63562e-007 1.17448e-007
34
root  -65.7493 26.8044 -34.8794 17.2699 48.6175 2.70111
RightUpLeg  -31.613 -13.0607 -12.0366
RightLeg  73.4568 -4.07812 -11.1265
RightFoot  -27.1537 1.64935 7.19983
RightToes  -41.7173 -0.232345 -0.324616
Spine  18.6226 0.260107 -4.15141
Spine1  28.9666 4.58861 -6.76448
HEad  15.1411 -0.917554 14.1613
LeftShoulder1  0 -2.42657e-020 -4.95415e-022
LeftArm  -29.312 -35.9223 -81.8709
LeftForeArm  31.9294 -23.3076 -4.34647
LeftHand  0.324531 -6.73121 -5.89018
RightShoulder  0 2.42657e-020 1.07489e-018
RightArm  -37.5587 41.8295 90.8253
RightForeArm  64.9094 11.0186 1.91113
RightHand  -0.698076 23.5813 -2.97409
LeftUpLeg  -65.6077 -1.90695 12.0406
LeftLeg  67.5134 -8.72342 -17.1664
LeftFoot  -5.96102 0.0783334 1.50439
LeftToes  -44.0481 8.63562e-007 1.17448e-007
35
root  -65.6501 27.4423 -34.2188 18.4114 50.1106 2.60038
RightUpLeg  -32.3239 -14.532 -10.3238
RightLeg  73.6976 -4.21611 -11.6327
RightFoot  -22.6033 1.21075 6.43065
RightToes  -39.0506 -0.210944 -0.309697
Spine  18.0555 -0.496494 -4.98477
Spine1  28.5887 2.10441 -6.87825
HEad  14.3641 -1.81606 16.0203
LeftShoulder1  0 -2.42657e-020 -4.95415e-022
LeftArm  -30.8432 -36.3546 -76.7954
LeftForeArm  33.7942 -24.7685 -4.65487
LeftHand  0.526874 -7.72875 -8.16521
RightShoulder  0 2.42657e-020 1.07489e-018
RightArm  -27.5452 34.7443 93.5296
RightForeArm  54.3376 17.2827 3.1076
RightHand  -1.67902 23.5689 -7.66731
LeftUpLeg  -64.1855 -2.34552 12.6988
LeftLeg  64.2627 -10.0157 -17.1521
LeftFoot  -5.12483 0.0550178 1.22932
LeftToes  -44.8337 8.63562e-007 1.17448e-007
36
root  -65.5996 28.1452 -33.5411 19.1111 50.8528 2.24826
RightUpLeg  -32.8581 -16.6516 -9.31735
RightLeg  73.1724 -3.17376 -8.62177
RightFoot  -19.2703 0.696615 4.47934
RightToes  -33.9833 -0.17229 -0.278676
Spine  17.1334 -0.614006 -5.35298
Spine1  27.742 1.14016 -6.9257
HEad  13.4321 -2.99602 16.765
LeftShoulder1  0 -2.42657e-020 -4.95415e-022
LeftArm  -28.7192 -34.1615 -73.4532
LeftForeArm  32.0232 -29.7711 -5.77961
LeftHand  0.709181 -8.63247 -9.75306
RightShoulder  0 2.42657e-020 1.07489e-018
RightArm  -24.7429 27.9233 94.7003
RightForeArm  47.0251 23.0234 4.27164
RightHand  -1.77355 24.0839 -7.9321
LeftUpLeg  -61.9746 -2.69502 13.691
LeftLeg  60.343 -11.2815 -16.5713
LeftFoot  -4.23847 0.0336594 0.909575
LeftToes  -46.2543 8.63562e-007 1.17448e-007
